<!-- SVG Sprite -->
<svg width="0" height="0" class="hidden">
  <symbol fill="none" xmlns="http://www.w3.org/2000/svg" viewBox="0 0 24 24" id="settings">
    <path fill-rule="evenodd" clip-rule="evenodd" d="M9.53323 24C9.22489 24 8.96588 23.784 8.91654 23.496L8.46019 20.316C7.68316 20.016 7.01713 19.608 6.37577 19.128L3.30464 20.34C3.0333 20.436 2.70029 20.34 2.55228 20.076L0.0855125 15.924C-0.0748274 15.66 -0.00082439 15.336 0.233519 15.156L2.83596 13.164L2.74962 12L2.83596 10.8L0.233519 8.844C-0.00082439 8.664 -0.0748274 8.34 0.0855125 8.076L2.55228 3.924C2.70029 3.66 3.0333 3.552 3.30464 3.66L6.37577 4.86C7.01713 4.392 7.68316 3.984 8.46019 3.684L8.91654 0.504C8.96588 0.216 9.22489 0 9.53323 0H14.4668C14.7751 0 15.0341 0.216 15.0835 0.504L15.5398 3.684C16.3168 3.984 16.9829 4.392 17.6242 4.86L20.6954 3.66C20.9667 3.552 21.2997 3.66 21.4477 3.924L23.9145 8.076C24.0748 8.34 24.0008 8.664 23.7665 8.844L21.164 10.8L21.2504 12L21.164 13.2L23.7665 15.156C24.0008 15.336 24.0748 15.66 23.9145 15.924L21.4477 20.076C21.2997 20.34 20.9667 20.448 20.6954 20.34L17.6242 19.14C16.9829 19.608 16.3168 20.016 15.5398 20.316L15.0835 23.496C15.0341 23.784 14.7751 24 14.4668 24H9.53323ZM16.9335 12C16.9335 9.34903 14.7247 7.2 12 7.2C9.27528 7.2 7.06646 9.34903 7.06646 12C7.06646 14.651 9.27528 16.8 12 16.8C14.7247 16.8 16.9335 14.651 16.9335 12ZM9.53323 12C9.53323 10.6745 10.6376 9.6 12 9.6C13.3624 9.6 14.4668 10.6745 14.4668 12C14.4668 13.3255 13.3624 14.4 12 14.4C10.6376 14.4 9.53323 13.3255 9.53323 12ZM10.6186 5.532L11.075 2.4H12.925L13.3814 5.544C14.8615 5.832 16.1688 6.6 17.1185 7.668L20.091 6.42L21.016 7.98L18.4136 9.84C18.9069 11.244 18.9069 12.768 18.4136 14.172L21.0284 16.032L20.1033 17.592L17.1062 16.344C16.1565 17.4 14.8615 18.168 13.3937 18.468L12.9374 21.6H11.0626L10.6063 18.456C9.13855 18.168 7.8435 17.4 6.89379 16.344L3.89667 17.592L2.97163 16.032L5.5864 14.16C5.09305 12.768 5.09305 11.244 5.5864 9.84L2.98396 7.98L3.909 6.42L6.88146 7.668C7.83116 6.6 9.13855 5.832 10.6186 5.532Z" fill="#878787"></path>
  </symbol>
  <symbol fill="none" xmlns="http://www.w3.org/2000/svg" viewBox="0 0 24 24" id="logout">
    <path d="M23.2497 11.25H13.7496C13.3356 11.25 12.9996 10.914 12.9996 10.5C12.9996 10.086 13.3356 9.75 13.7496 9.75H23.2497C23.6637 9.75 23.9997 10.086 23.9997 10.5C23.9997 10.914 23.6637 11.25 23.2497 11.25Z" fill="#878787"></path>
    <path d="M19.4997 15C19.3076 15 19.1157 14.9269 18.9696 14.7801C18.6766 14.4869 18.6766 14.012 18.9696 13.719L22.1897 10.4991L18.9696 7.27899C18.6766 6.98602 18.6766 6.51105 18.9696 6.21808C19.2628 5.92493 19.7377 5.92493 20.0307 6.21808L23.7807 9.96808C24.0737 10.261 24.0737 10.736 23.7807 11.029L20.0307 14.779C19.8837 14.9269 19.6918 15 19.4997 15Z" fill="#878787"></path>
    <path d="M8.00006 24C7.78601 24 7.58295 23.97 7.38007 23.907L1.36194 21.902C0.543091 21.616 0 20.853 0 20.0001V2.00006C0 0.897034 0.897034 0 2.00006 0C2.21393 0 2.41699 0.0300293 2.62006 0.0930176L8.638 2.09802C9.45703 2.38403 9.99994 3.14703 9.99994 3.99994V21.9999C9.99994 23.103 9.10309 24 8.00006 24ZM2.00006 1.5C1.72504 1.5 1.5 1.72504 1.5 2.00006V20.0001C1.5 20.213 1.64301 20.4109 1.84698 20.482L7.83691 22.478C7.87994 22.4919 7.93597 22.5 8.00006 22.5C8.27509 22.5 8.49994 22.275 8.49994 21.9999V3.99994C8.49994 3.78699 8.35693 3.58905 8.15295 3.51801L2.16302 1.52197C2.12 1.50806 2.06396 1.5 2.00006 1.5Z" fill="#878787"></path>
    <path d="M15.2496 8.00006C14.8356 8.00006 14.4996 7.66406 14.4996 7.25006V2.75006C14.4996 2.06104 13.9388 1.5 13.2498 1.5H1.99976C1.58575 1.5 1.24976 1.164 1.24976 0.75C1.24976 0.335999 1.58575 0 1.99976 0H13.2498C14.7668 0 15.9996 1.23303 15.9996 2.75006V7.25006C15.9996 7.66406 15.6636 8.00006 15.2496 8.00006Z" fill="#878787"></path>
    <path d="M13.2498 21H9.24963C8.83563 21 8.49963 20.664 8.49963 20.25C8.49963 19.836 8.83563 19.5 9.24963 19.5H13.2498C13.9388 19.5 14.4996 18.939 14.4996 18.2499V13.7499C14.4996 13.3359 14.8356 12.9999 15.2496 12.9999C15.6636 12.9999 15.9996 13.3359 15.9996 13.7499V18.2499C15.9996 19.767 14.7668 21 13.2498 21Z" fill="#878787"></path>
  </symbol>
  <symbol fill="none" xmlns="http://www.w3.org/2000/svg" viewBox="0 0 32 32" id="fire">
    <path fill-rule="evenodd" clip-rule="evenodd" d="M24.5261 13.2739C24.9323 13.6856 25.3448 14.1036 25.702 14.5778L25.6146 14.5956C26.191 15.2711 26.6627 16 27.012 16.8178L27.2391 17.28C28.8985 21.3333 27.7631 26.0622 24.619 29.0133C21.8068 31.6444 17.8766 32.3378 14.2085 31.8578C10.7674 31.4133 7.57094 29.2089 5.75434 26.1333C5.19539 25.1911 4.74124 24.1244 4.4967 23.0578C4.19976 22.1689 4.09495 21.28 4.02508 20.3911C3.78054 16.5333 5.33513 12.4444 8.19976 10.0267C6.88972 12.9422 7.20413 16.5867 9.12553 19.1289C9.21286 19.2533 9.28273 19.3422 9.38754 19.4311C9.70195 19.7156 10.1212 19.8222 10.5054 19.6444C10.8548 19.5022 11.1168 19.1467 11.1168 18.7556C11.1168 18.5244 11.0469 18.3467 10.9771 18.1689C8.88098 12.5689 10.6277 6.04444 15.0644 2.34667C16.2871 1.33333 17.7544 0.408889 19.3439 0C17.7544 3.28889 18.2784 7.57333 20.8286 10.1689C21.4251 10.776 22.0832 11.2786 22.7417 11.7816C23.2979 12.2064 23.8545 12.6315 24.3744 13.12C24.4248 13.1713 24.4754 13.2225 24.5261 13.2739ZM18.4006 26.8444C19.012 26.6667 19.798 26.2044 20.2871 25.7778H20.2696C21.3177 24.8 21.929 23.2 21.8766 21.7422C21.8766 21.4756 21.8417 21.2267 21.7718 20.9778C21.4877 19.4047 20.5085 18.5239 19.4933 17.6109C18.9482 17.1206 18.3928 16.6211 17.929 16C17.5273 15.4667 17.1779 14.7911 16.881 14.1156C16.3919 15.3422 16.357 16.4622 16.5666 17.7778C16.6317 18.1706 16.7228 18.5474 16.8125 18.9185C17.0354 19.8406 17.2499 20.7282 17.0382 21.7422C16.6889 23.3244 15.4661 24.8889 13.3875 25.3867C14.5578 26.56 16.4792 27.5556 18.4006 26.8444Z" fill="#FB6D3A"></path>
  </symbol>
  <symbol fill="none" xmlns="http://www.w3.org/2000/svg" viewBox="0 0 16 16" id="arrow-right">
    <path d="M11.92 7.35443L8.4576 3.62471L9.96587 2L16 8.5L9.96587 15L8.4576 13.3753L11.9125 9.65247H0V7.35443H11.92Z" fill="white"></path>
  </symbol>
  <symbol fill="none" xmlns="http://www.w3.org/2000/svg" viewBox="0 0 24 24" id="location">
    <path fill-rule="evenodd" clip-rule="evenodd" d="M10.8 1.26591C5.79406 1.81929 1.81929 5.79406 1.26591 10.8H0V13.2H1.26591C1.81929 18.2059 5.79406 22.1807 10.8 22.7341V24H13.2V22.7341C18.2059 22.1807 22.1807 18.2059 22.7341 13.2H24V10.8H22.7341C22.1807 5.79406 18.2059 1.81929 13.2 1.26591V0H10.8V1.26591ZM4.8 10.8H3.68507C4.21128 7.12117 7.12117 4.21128 10.8 3.68507V4.8H13.2V3.68507C16.8788 4.21128 19.7887 7.12117 20.3149 10.8H19.2V13.2H20.3149C19.7887 16.8788 16.8788 19.7887 13.2 20.3149V19.2H10.8V20.3149C7.12117 19.7887 4.21128 16.8788 3.68507 13.2H4.8V10.8ZM12 14.4C13.3255 14.4 14.4 13.3255 14.4 12C14.4 10.6745 13.3255 9.6 12 9.6C10.6745 9.6 9.6 10.6745 9.6 12C9.6 13.3255 10.6745 14.4 12 14.4ZM7.2 12C7.2 14.651 9.34903 16.8 12 16.8C14.651 16.8 16.8 14.651 16.8 12C16.8 9.34903 14.651 7.2 12 7.2C9.34903 7.2 7.2 9.34903 7.2 12Z" fill="#EB5757"></path>
  </symbol>
  <symbol fill="none" xmlns="http://www.w3.org/2000/svg" viewBox="0 0 16 16" id="options">
    <path d="M4.175 10L8 13.7116L11.825 10L13 11.1482L8 16L3 11.1482L4.175 10Z" fill="black"></path>
    <path d="M11.825 6L8 2.28841L4.175 6L3 4.85175L8 0L13 4.85175L11.825 6Z" fill="black"></path>
  </symbol>
  <symbol fill="none" xmlns="http://www.w3.org/2000/svg" viewBox="0 0 24 24" id="analysis">
    <path d="M14.0401 4.08307H13.3369V13.8168L7.56549 21.6403L8.1308 22.0578C9.85121 23.3284 11.8946 24 14.0401 24C19.5312 24 23.9985 19.5326 23.9985 14.0415C23.9985 8.55044 19.5311 4.08307 14.0401 4.08307Z" fill="#FB6D3A"></path>
    <path d="M2.87171 5.56366C2.28259 6.24672 1.71559 6.93241 1.27191 7.72319C0.65232 8.82757 0.246711 10.0492 0.0825076 11.3048C-0.270227 14.0024 0.518211 16.7773 2.23674 18.8855C2.92271 19.727 3.74602 20.3901 4.61359 21.0305L10.9095 12.4961L2.87171 5.56366Z" fill="#FB6D3A"></path>
    <path d="M11.2208 0C9.77363 0 8.39673 0.142031 7.06248 0.753609C5.72781 1.36537 4.72093 2.31605 3.7756 3.41236L11.2208 9.83362V0Z" fill="#FB6D3A"></path>
  </symbol>
  <symbol fill="none" xmlns="http://www.w3.org/2000/svg" viewBox="0 0 24 24" id="calendar">
    <path d="M24 7.48052C24 5.74494 24 4.53075 24 4.41558C24 3.1266 23.0537 2.07792 21.8906 2.07792H21.6094V4.93507C21.6094 5.3654 21.2946 5.71429 20.9062 5.71429C20.5179 5.71429 20.2031 5.3654 20.2031 4.93507C20.2031 4.06031 20.2031 1.65029 20.2031 0.779221C20.2031 0.348883 19.8883 0 19.5 0C19.1117 0 18.7969 0.348883 18.7969 0.779221V2.07792H14.1094V4.93507C14.1094 5.3654 13.7946 5.71429 13.4062 5.71429C13.0179 5.71429 12.7031 5.3654 12.7031 4.93507C12.7031 4.06031 12.7031 1.65029 12.7031 0.779221C12.7031 0.348883 12.3883 0 12 0C11.6117 0 11.2969 0.348883 11.2969 0.779221V2.07792H6.60938V4.93507C6.60938 5.3654 6.29456 5.71429 5.90625 5.71429C5.51794 5.71429 5.20312 5.3654 5.20312 4.93507C5.20312 4.06031 5.20312 1.65029 5.20312 0.779221C5.20312 0.348883 4.88831 0 4.5 0C4.11169 0 3.79688 0.348883 3.79688 0.779221V2.07792H2.10938C0.946266 2.07792 0 3.1266 0 4.41558V7.48052H24Z" fill="#FACD5D"></path>
    <path d="M0 9.03894V21.6623C0 22.9513 0.946266 24 2.10938 24H21.8906C23.0537 24 24 22.9513 24 21.6623C24 21.3286 24 14.0357 24 9.03894C23.5624 9.03894 0.242063 9.03894 0 9.03894ZM6.75 19.8441H5.25C4.86169 19.8441 4.54688 19.4953 4.54688 19.0649C4.54688 18.6346 4.86169 18.2857 5.25 18.2857H6.75C7.13831 18.2857 7.45312 18.6346 7.45312 19.0649C7.45312 19.4953 7.13831 19.8441 6.75 19.8441ZM6.75 16.5195H5.25C4.86169 16.5195 4.54688 16.1706 4.54688 15.7402C4.54688 15.3099 4.86169 14.961 5.25 14.961H6.75C7.13831 14.961 7.45312 15.3099 7.45312 15.7402C7.45312 16.1706 7.13831 16.5195 6.75 16.5195ZM6.75 13.1948H5.25C4.86169 13.1948 4.54688 12.8459 4.54688 12.4156C4.54688 11.9852 4.86169 11.6363 5.25 11.6363H6.75C7.13831 11.6363 7.45312 11.9852 7.45312 12.4156C7.45312 12.8459 7.13831 13.1948 6.75 13.1948ZM12.75 19.8441H11.25C10.8617 19.8441 10.5469 19.4953 10.5469 19.0649C10.5469 18.6346 10.8617 18.2857 11.25 18.2857H12.75C13.1383 18.2857 13.4531 18.6346 13.4531 19.0649C13.4531 19.4953 13.1383 19.8441 12.75 19.8441ZM12.75 16.5195H11.25C10.8617 16.5195 10.5469 16.1706 10.5469 15.7402C10.5469 15.3099 10.8617 14.961 11.25 14.961H12.75C13.1383 14.961 13.4531 15.3099 13.4531 15.7402C13.4531 16.1706 13.1383 16.5195 12.75 16.5195ZM12.75 13.1948H11.25C10.8617 13.1948 10.5469 12.8459 10.5469 12.4156C10.5469 11.9852 10.8617 11.6363 11.25 11.6363H12.75C13.1383 11.6363 13.4531 11.9852 13.4531 12.4156C13.4531 12.8459 13.1383 13.1948 12.75 13.1948ZM18.75 19.8441H17.25C16.8617 19.8441 16.5469 19.4953 16.5469 19.0649C16.5469 18.6346 16.8617 18.2857 17.25 18.2857H18.75C19.1383 18.2857 19.4531 18.6346 19.4531 19.0649C19.4531 19.4953 19.1383 19.8441 18.75 19.8441ZM18.75 16.5195H17.25C16.8617 16.5195 16.5469 16.1706 16.5469 15.7402C16.5469 15.3099 16.8617 14.961 17.25 14.961H18.75C19.1383 14.961 19.4531 15.3099 19.4531 15.7402C19.4531 16.1706 19.1383 16.5195 18.75 16.5195ZM18.75 13.1948H17.25C16.8617 13.1948 16.5469 12.8459 16.5469 12.4156C16.5469 11.9852 16.8617 11.6363 17.25 11.6363H18.75C19.1383 11.6363 19.4531 11.9852 19.4531 12.4156C19.4531 12.8459 19.1383 13.1948 18.75 13.1948Z" fill="#FACD5D"></path>
  </symbol>
  <symbol fill="none" xmlns="http://www.w3.org/2000/svg" viewBox="0 0 14 16" id="clock-light">
    <path d="M6.85714 0.934525C3.07596 0.934525 0 4.13865 0 8.07738C0 12.0161 3.07596 15.2202 6.85714 15.2202C10.6383 15.2202 13.7143 12.0161 13.7143 8.07738C13.7143 4.13865 10.6383 0.934525 6.85714 0.934525ZM10.1183 11.772C10.0069 11.888 9.8606 11.9465 9.71432 11.9465C9.56805 11.9465 9.42167 11.888 9.31034 11.772L6.45316 8.79585C6.3457 8.68457 6.28575 8.53329 6.28575 8.37504V4.50595C6.28575 4.1768 6.54168 3.91075 6.85714 3.91075C7.17261 3.91075 7.42854 4.1768 7.42854 4.50595V8.12861L10.1183 10.9303C10.3417 11.1631 10.3417 11.5393 10.1183 11.772Z" fill="white"></path>
  </symbol>
  <symbol fill="none" xmlns="http://www.w3.org/2000/svg" viewBox="0 0 15 13" id="like">
    <path d="M8.78536 4.64286V5.14286H9.28536H12.9996C13.7477 5.14286 14.3568 5.75193 14.3568 6.5V8.34761L12.8696 11.6938L12.8693 11.6946C12.6533 12.1827 12.1661 12.5 11.63 12.5H4.21393V6.04546L6.00521 2.91026L6.07107 2.79498V2.66221V0.5H7.42821C8.17629 0.5 8.78536 1.10907 8.78536 1.85714V4.64286Z" stroke="#FF1E1E"></path>
    <path d="M0.5 12.5V6.07143H2.28571V12.5H0.5Z" stroke="#FF1E1E"></path>
  </symbol>
  <symbol fill="none" xmlns="http://www.w3.org/2000/svg" viewBox="0 0 15 13" id="dislike">
    <path d="M8.78572 8.35714V7.85714H9.28572H13C13.7481 7.85714 14.3572 7.24807 14.3572 6.5V4.65239L12.87 1.30621L12.8696 1.30545C12.6537 0.817316 12.1665 0.5 11.6304 0.5H4.21429V6.95454L6.00557 10.0897L6.07144 10.205V10.3378V12.5H7.42858C8.17665 12.5 8.78572 11.8909 8.78572 11.1429V8.35714Z" stroke="#878787"></path>
    <path d="M0.5 0.499972V6.92854H2.28571V0.499972H0.5Z" stroke="#878787"></path>
  </symbol>
  <symbol fill="none" xmlns="http://www.w3.org/2000/svg" viewBox="0 0 14 15" id="clock-dark">
    <path d="M6.85714 0.85714C3.07596 0.85714 0 3.9331 0 7.71428C0 11.4955 3.07596 14.5714 6.85714 14.5714C10.6383 14.5714 13.7143 11.4955 13.7143 7.71428C13.7143 3.9331 10.6383 0.85714 6.85714 0.85714ZM10.1183 11.2611C10.0069 11.3725 9.8606 11.4286 9.71432 11.4286C9.56805 11.4286 9.42167 11.3725 9.31034 11.2611L6.45316 8.40401C6.3457 8.29719 6.28575 8.15196 6.28575 8.00003V4.28571C6.28575 3.96972 6.54168 3.71432 6.85714 3.71432C7.17261 3.71432 7.42854 3.96972 7.42854 4.28571V7.76346L10.1183 10.4531C10.3417 10.6766 10.3417 11.0377 10.1183 11.2611Z" fill="#878787"></path>
  </symbol>
  <symbol fill="none" xmlns="http://www.w3.org/2000/svg" viewBox="0 0 12 12" id="chevron-right">
    <path d="M2 10.59L6.63949 6L2 1.41L3.43531 0L9.5 6L3.43531 12L2 10.59Z" fill="#EB5757"></path>
  </symbol>
  <symbol fill="none" xmlns="http://www.w3.org/2000/svg" viewBox="0 0 24 24" id="home">
    <path fill-rule="evenodd" clip-rule="evenodd" d="M24 13.0534L12 1L0 13.0534H2.31282V24H10.7891V16.7023H13.2109V24H21.6872V13.0534H24ZM8.36731 14.2697V21.5674H4.73461V11.7277L12 4.42993L19.2654 11.7277V21.5674H15.6327V14.2697H13.2109H10.7891H8.36731Z" fill="#878787"></path>
  </symbol>
  <symbol fill="none" xmlns="http://www.w3.org/2000/svg" viewBox="0 0 24 24" id="explore">
    <path fill-rule="evenodd" clip-rule="evenodd" d="M0 0H10.6667V13.3333H0V0ZM24 0H13.3333V8H24V0ZM8 10.6667V2.66667H2.66667V10.6667H8ZM21.3333 5.33333V2.66667H16V5.33333H21.3333ZM21.3333 13.3333V21.3333H16V13.3333H21.3333ZM8 21.3333V18.6667H2.66667V21.3333H8ZM24 10.6667H13.3333V24H24V10.6667ZM0 16H10.6667V24H0V16Z" fill="#878787"></path>
  </symbol>
  <symbol fill="none" xmlns="http://www.w3.org/2000/svg" viewBox="0 0 24 24" id="saved">
    <path fill-rule="evenodd" clip-rule="evenodd" d="M5.57143 0H18.4286C19.8429 0 21 1.18667 21 2.66667V24L12 20L3 24V2.66667C3 1.19391 4.15127 0 5.57143 0ZM12 17.0933L18.4286 20V2.66667H5.57143V20L12 17.0933Z" fill="#878787"></path>
  </symbol>
  <symbol fill="none" xmlns="http://www.w3.org/2000/svg" viewBox="0 0 24 24" id="subscription">
    <path fill-rule="evenodd" clip-rule="evenodd" d="M2.66667 0C1.18667 0 0 1.18667 0 2.66667V21.3333C0 22.8133 1.18667 24 2.66667 24H21.3333C22.8133 24 24 22.8133 24 21.3333V2.66667C24 1.18667 22.8133 0 21.3333 0H2.66667ZM2.66667 2.66667H21.3333V21.3333H2.66667V2.66667ZM5.33333 8V5.33333H18.6667V8H5.33333ZM5.33333 10.6667V13.3333H18.6667V10.6667H5.33333ZM5.33333 18.6667V16H14.6667V18.6667H5.33333Z" fill="#878787"></path>
  </symbol>
  <symbol fill="none" xmlns="http://www.w3.org/2000/svg" viewBox="0 0 24 24" id="message">
    <path fill-rule="evenodd" clip-rule="evenodd" d="M2.4 3H21.6C22.9255 3 24 4.06332 24 5.375V19.625C24 20.9367 22.9255 22 21.6 22H2.4C1.068 22 0 20.9312 0 19.625V5.375C0 4.05687 1.068 3 2.4 3ZM12 11.3125L21.6 5.375H2.4L12 11.3125ZM21.6 8.18937V19.625H2.4V8.18937L12 14.115L21.6 8.18937Z" fill="#A3A3A4"></path>
  </symbol>
  <symbol fill="none" xmlns="http://www.w3.org/2000/svg" viewBox="0 0 20 20" id="filter">
    <g id="Icons/20px/Filter">
      <path id="Icon" fill-rule="evenodd" clip-rule="evenodd" d="M0 3V5.33333H20V3H0ZM3.33333 11.1667H16.6667V8.83333H3.33333V11.1667ZM12.2222 17H7.77778V14.6667H12.2222V17Z" fill="white"></path>
    </g>
  </symbol>
</svg>
